<svg xmlns="http://www.w3.org/2000/svg" width="584.874" height="343.652" viewBox="0 0 154.748 90.924"><defs><filter id="a" x="-.397" width="1.793" y="-.324" height="1.647" color-interpolation-filters="sRGB"><feGaussianBlur stdDeviation="3.541"/></filter></defs><path fill="#f3a212" d="M47.177 2.673l4.198 2.851L8.746 63.43 4.55 60.58z"/><path fill="#f3a212" d="M34.85 8.599l2.626-4.511L150.2 61.539l-2.626 4.511z"/><path d="M47.482 42.047c-.032-.04-.54-.73-1.128-1.53-1.22-1.661-1.077-1.519-1.3-1.298-.224.22-.164.247-.778-.34-.534-.507-.534-.507-.25-.803.339-.353.333-.275.051-.657a3.069 3.069 0 01-.232-.341c0-.037 1.23-.902 1.266-.889.016.006.087.092.158.192.186.259.186.258.294.151l2.936-2.957c1.567-1.577 2.866-2.87 2.887-2.874.17-.028 1.102 1.018 1.003 1.125-.057.063-1.426 1.443-3.041 3.067-1.616 1.625-2.94 2.971-2.943 2.992-.003.02.413.605.924 1.3 1.622 2.203 1.496 2.024 1.455 2.064-.05.049-1.209.87-1.229.871-.009 0-.042-.032-.073-.073zm3.433-.191c-.73-.115-1.22-.622-1.219-1.259.002-.905.629-1.34 1.997-1.386.465-.016.522-.081.406-.471-.134-.452-.834-.448-.952.005-.028.11-1.3.198-1.341.093-.348-.89 1.702-1.694 2.876-1.13.7.337.78.563.799 2.274.015 1.376.017 1.394.144 1.687.058.133.055.133-.648.133-.723 0-.667.017-.74-.223-.043-.144-.058-.145-.196-.018-.248.227-.74.356-1.126.295zm.898-.981c.482-.21.478-.95-.004-.95-.546 0-.767.168-.767.584 0 .362.374.54.771.366zm3.157.898c-.037-.044-1.011-4.124-.995-4.167.02-.048 1.202-.057 1.24-.008.013.015.11.56.218 1.208.187 1.135.21 1.248.241 1.217.008-.007.16-.552.337-1.21.177-.66.329-1.208.336-1.22.019-.03.91-.032.928-.003.007.011.154.541.326 1.178.355 1.308.331 1.228.36 1.2.011-.011.111-.543.222-1.181s.212-1.174.225-1.19c.038-.046 1.222-.04 1.24.007.016.04-.96 4.127-.996 4.17-.05.06-1.105.039-1.132-.023-.012-.028-.17-.573-.35-1.212a59.83 59.83 0 00-.338-1.17c-.03-.031-.085.142-.393 1.216-.186.65-.35 1.19-.366 1.2-.05.031-1.075.02-1.103-.012z" fill="#f6a11e"/><path d="M64.754 36.26v1.047h-.557v.91h.557v1.82c0 .373-.026.764.188 1.093.295.45.936.532 1.438.465.117-.016.386-.01.463-.114.048-.062.024-.187.024-.26v-.66c-.203.016-.5.083-.664-.077-.154-.15-.102-.436-.102-.629v-1.638h.697v-.91H66.1V36.26h-1.347m-.766 3.778h-1.277c-.01.481-.64.74-.994.384-.297-.3-.24-.843-.236-1.226.003-.284.055-.643.303-.825.44-.32.923.092.927.551h1.277c-.017-.4-.107-.803-.378-1.115-.63-.724-1.955-.752-2.71-.206-.652.472-.775 1.266-.766 2.004.008.661.3 1.389.906 1.733 1.153.654 2.885.139 2.948-1.3m4.876-2.79c-.41.053-.789.171-1.115.433-.935.753-.943 2.519-.137 3.358.442.46 1.158.636 1.786.562.566-.066 1.072-.282 1.418-.744.871-1.166.396-3.25-1.14-3.568a2.516 2.516 0 00-.812-.041m4.249.423l-.024-.364h-1.253v5.871h1.346v-1.957c.683.615 1.77.474 2.273-.296.798-1.219.442-3.863-1.46-3.683-.376.036-.588.226-.882.429m8.938 2.503h-1.254c.004 1.31 1.747 1.648 2.763 1.32.389-.125.795-.358.95-.75.367-.926-.423-1.53-1.252-1.716-.305-.068-.85-.089-1.01-.402-.138-.266.187-.504.43-.52.338-.023.521.2.58.498h1.347c-.026-1.253-1.648-1.58-2.647-1.267-.405.127-.79.386-.946.789-.365.938.475 1.514 1.294 1.715.29.071.825.115.961.424.116.263-.212.444-.427.471-.398.051-.735-.17-.789-.562m-5.665-2.867v2.253c0 .505-.025 1.025.24 1.479.33.562 1.147.686 1.734.492.226-.074.499-.227.603-.447h.023l.064.432.331.024h.906v-4.233H78.94v1.98c0 .284.066.659-.01.933-.095.34-.662.452-.942.293-.31-.174-.255-.567-.255-.862v-2.344h-1.347m-7.36.962c.962-.136.985 1.346.723 1.928a.652.652 0 01-.514.38c-.935.132-.95-1.231-.754-1.814.087-.258.261-.454.545-.494m4.644 0c.903-.127.905 1.171.755 1.746-.07.27-.218.518-.523.562a.81.81 0 01-.255-.007c-.647-.115-.465-.87-.465-1.352 0-.191-.061-.509.028-.682.083-.164.286-.242.46-.267" fill="#434343"/><path transform="matrix(.01744 -.02254 .02473 .03503 45.297 34.676)" opacity=".709" fill="none" stroke="#000" stroke-width="1.83" filter="url(#a)" d="M-96.41 29.832h2.138v32.072h-2.138z"/><path transform="matrix(.01694 -.02122 .02401 .03298 46.49 33.703)" opacity=".709" fill="none" stroke="#000" stroke-width="1.83" filter="url(#a)" d="M-96.41 29.832h2.138v32.072h-2.138z"/><path d="M44.1 37.425l1.333-.821 1.159 1.571-1.277.97z" fill="#f6a11e"/><g aria-label="LAW" style="line-height:0;-inkscape-font-specification:'Roboto Bold'" font-weight="700" font-size="21.813" font-family="Roboto" letter-spacing="0" word-spacing="0" fill="#434343" stroke-width=".545"><path d="M47.654 58.742h6.631v2.213h-9.6V46.568h2.97zM64.17 57.853h-4.8l-.997 3.102h-3.101l4.993-14.387h3.04l4.974 14.387h-3.102zm-4.068-2.263h3.346l-1.637-5.07h-.061zM80.991 56.33h.061l1.963-9.762h3.061l-3.458 14.387h-2.756l-2.725-9.476h-.061l-2.715 9.476h-2.757l-3.457-14.387h3.06l1.974 9.753h.06l2.665-9.753h2.4z" style="-inkscape-font-specification:'Roboto Bold'"/></g><g aria-label="SCHOOL" style="line-height:0;-inkscape-font-specification:roboto" font-weight="400" font-size="21.748" font-family="roboto" letter-spacing="0" word-spacing="0" fill="#434343" stroke-width=".544"><path d="M52.812 75.985q0-.78-.51-1.19-.51-.42-1.849-.89-2.707-.88-4.026-1.87-1.31-1-1.31-2.869 0-1.83 1.53-2.959 1.528-1.13 3.886-1.13 2.488 0 4.007 1.17 1.519 1.16 1.47 3.28l-.02.06h-3.278q0-1.03-.56-1.49-.56-.47-1.689-.47-.919 0-1.448.45-.53.45-.53 1.11 0 .64.54 1.03.55.379 2.038.959 2.528.75 3.827 1.83t1.299 2.959q0 1.92-1.499 3.009-1.499 1.08-3.977 1.08-2.468 0-4.186-1.16-1.71-1.17-1.66-3.67l.02-.06h3.288q0 1.27.62 1.81.63.53 1.918.53 1.06 0 1.579-.42.52-.42.52-1.1zM69.199 74.935l.02.06q.04 2.49-1.41 3.779-1.438 1.28-4.086 1.28-2.698 0-4.337-1.65-1.628-1.65-1.628-4.319v-3.04q0-2.658 1.568-4.308 1.58-1.66 4.167-1.66 2.768 0 4.277 1.29 1.519 1.29 1.479 3.75l-.03.06H65.93q0-1.34-.57-1.92-.569-.58-1.868-.58-1.139 0-1.748.92-.61.91-.61 2.429v3.06q0 1.529.67 2.448.669.92 1.918.92 1.16 0 1.669-.58.52-.58.52-1.94zM83.218 79.844H79.85v-5.859h-5.385v5.859h-3.378V65.287h3.378v6.099h5.385v-6.099h3.368zM97.626 73.875q0 2.69-1.708 4.439-1.699 1.74-4.447 1.74-2.768 0-4.486-1.74-1.719-1.75-1.719-4.439v-2.62q0-2.678 1.709-4.428 1.718-1.75 4.476-1.75 2.738 0 4.457 1.75 1.718 1.75 1.718 4.429zm-3.367-2.64q0-1.559-.74-2.558-.729-1-2.068-1-1.369 0-2.098 1-.72.99-.72 2.559v2.64q0 1.579.73 2.579.74 1 2.108 1 1.33 0 2.059-1 .73-1 .73-2.58zM111.775 73.875q0 2.69-1.708 4.439-1.699 1.74-4.447 1.74-2.768 0-4.486-1.74-1.719-1.75-1.719-4.439v-2.62q0-2.678 1.709-4.428 1.718-1.75 4.476-1.75 2.738 0 4.457 1.75 1.718 1.75 1.718 4.429zm-3.367-2.64q0-1.559-.74-2.558-.729-1-2.068-1-1.369 0-2.098 1-.72.99-.72 2.559v2.64q0 1.579.73 2.579.74 1 2.108 1 1.33 0 2.059-1 .729-1 .729-2.58zM117.211 77.244h6.245v2.6h-9.622V65.287h3.377z" style="-inkscape-font-specification:roboto"/></g><path fill="#f3a212" d="M21.798 56.824h17.358v26.162H21.798z"/><path d="M12.24 72.466v14.59l129.345-.929V71.67" fill="none" stroke="#c6c6c6" stroke-width="2.37561404"/></svg>