<svg xmlns="http://www.w3.org/2000/svg" width="58" height="58" viewBox="0 0 58 58" fill="none"><path d="M18.3029 50.0477C16.3262 50.0477 14.3494 50.0522 12.3727 50.0454C11.3203 50.042 10.7392 49.5379 10.7222 48.6384C10.704 47.6891 11.2886 47.1658 12.3897 47.1601C13.6584 47.1544 14.9283 47.1295 16.1959 47.1726C16.7544 47.1918 16.8903 47.0151 16.8756 46.4804C16.8371 45.1278 16.8416 43.773 16.8745 42.4204C16.8858 41.9605 16.7759 41.76 16.2911 41.6773C11.0484 40.7903 7.46986 37.8212 5.47611 32.9411C4.85079 31.4084 4.58458 29.7884 4.64575 28.1243C4.67634 27.294 5.21782 26.7695 6.04704 26.7638C6.87286 26.7582 7.46079 27.2623 7.49025 28.0937C7.54689 29.691 7.85615 31.2101 8.50638 32.6896C11.7122 39.977 22.031 41.1573 26.8217 34.7943C28.2876 32.8482 29.0601 30.7094 29.136 28.2977C29.1678 27.32 29.6741 26.774 30.5668 26.7638C31.4209 26.7536 32.0406 27.3495 32.0224 28.2931C31.9703 31.0889 31.1819 33.6683 29.5631 35.9634C27.3383 39.1194 24.3125 41.0339 20.4847 41.6411C19.924 41.7305 19.6827 41.9073 19.7088 42.5235C19.7609 43.7866 19.7597 45.0553 19.7099 46.3184C19.685 46.9653 19.8492 47.2043 20.5346 47.1737C21.7716 47.1193 23.012 47.1499 24.2513 47.1612C25.2924 47.1703 25.8973 47.6891 25.92 48.5637C25.9426 49.4733 25.3117 50.0397 24.2321 50.0443C22.2565 50.0544 20.2797 50.0477 18.3029 50.0477Z" fill="#323132"></path><path d="M25.418 23.5183C25.418 22.9293 25.401 22.3402 25.4214 21.7523C25.4588 20.7055 25.9935 20.1312 26.8918 20.1403C27.772 20.1493 28.2727 20.6512 28.2976 21.6786C28.3089 22.1533 28.4743 22.2326 28.9082 22.2802C32.1344 22.6393 35.3618 22.5509 38.6005 22.4818C41.8846 22.4116 44.9964 21.7228 48.055 20.6059C49.1901 20.1913 50.3954 20.0632 51.6165 20.0395C52.8706 20.0157 53.8289 20.5311 54.6094 21.443C55.8 22.8341 55.8363 24.1765 54.6695 25.5664C53.9082 26.4738 52.9499 27.0232 51.689 27.013C50.3455 27.0017 49.0167 26.8545 47.7865 26.3662C44.6826 25.1337 41.4597 24.6126 38.1474 24.5299C35.0582 24.4529 31.9702 24.4064 28.8901 24.7701C28.4335 24.8245 28.3123 24.9423 28.2999 25.3909C28.2704 26.4002 27.755 26.9111 26.8748 26.9111C26.0116 26.9111 25.4724 26.3572 25.4248 25.3705C25.3942 24.7565 25.418 24.1368 25.418 23.5183Z" fill="#323132"></path><path d="M18.2812 19.5546C19.4888 19.5546 20.6964 19.5433 21.904 19.5569C23.3664 19.5739 24.25 20.4473 24.2795 21.9109C24.2999 22.9089 24.3066 23.9091 24.2772 24.9071C24.233 26.424 23.3347 27.2996 21.8247 27.3064C19.4684 27.3178 17.1122 27.3178 14.7559 27.3064C13.0839 27.2985 12.2581 26.4716 12.2569 24.8358C12.2558 23.8366 12.2513 22.8386 12.2581 21.8395C12.2671 20.4257 13.0703 19.5863 14.4818 19.558C15.7483 19.5354 17.0147 19.5546 18.2812 19.5546Z" fill="#F6A62C"></path><path d="M18.1021 34.3231C16.8922 34.3231 15.6824 34.3344 14.4726 34.3208C13.2695 34.3072 12.3157 33.461 12.2579 32.3826C12.1911 31.1206 12.9659 30.1056 14.2675 30.0682C16.9206 29.9912 19.5781 30.0048 22.2323 30.0614C23.398 30.0864 24.2838 31.1218 24.2669 32.2127C24.2487 33.3421 23.3108 34.2812 22.0839 34.3152C20.7585 34.3514 19.4297 34.3231 18.1021 34.3231Z" fill="#F6A62C"></path><path d="M18.1874 16.7282C16.922 16.7282 15.6567 16.7328 14.3913 16.7271C13.1294 16.7214 12.3104 15.9636 12.2594 14.7662C12.2107 13.6232 13.0297 12.5538 14.1535 12.5312C16.8597 12.4768 19.5683 12.4745 22.2734 12.538C23.4108 12.5652 24.317 13.6651 24.2683 14.7118C24.2117 15.9285 23.3519 16.7214 22.0718 16.7271C20.777 16.7328 19.4822 16.7282 18.1874 16.7282Z" fill="#F6A62C"></path></svg>