<svg xmlns="http://www.w3.org/2000/svg" width="28" height="42" viewBox="0 0 28 42" fill="none"><path d="M16.4171 30.3484L26.4315 32.5039C27.4003 32.7098 27.6182 34.0055 26.7585 34.5141L16.5139 40.6172C15.7753 41.0531 14.8307 40.5082 14.8549 39.6484L15.0729 31.402C15.1092 30.7117 15.7389 30.2031 16.4171 30.3484Z" fill="#323132"></path><path d="M13.5346 40.3871L14.576 8.40625C14.5881 8.00664 14.3823 7.63125 14.0432 7.42539L2.58774 0.559378C1.83695 0.111331 0.892423 0.668363 0.928751 1.54024L2.24867 33.5937C2.26078 33.9207 2.41821 34.2234 2.68461 34.4293L11.7788 41.2227C12.4932 41.7555 13.5104 41.2711 13.5346 40.3871Z" fill="#F6A62C"></path></svg>