<svg xmlns="http://www.w3.org/2000/svg" width="38" height="38" viewBox="0 0 38 38" fill="none"><path d="M12.0234 17.5898H7.49609C6.67969 17.5898 6.01172 18.2578 6.01172 19.0742C6.01172 19.8906 6.67969 20.5586 7.49609 20.5586H12.0234C12.8398 20.5586 13.5078 19.8906 13.5078 19.0742C13.5078 18.2578 12.8398 17.5898 12.0234 17.5898Z" fill="#323132"></path><path d="M12.0234 23.3789H7.49609C6.67969 23.3789 6.01172 24.0469 6.01172 24.8633C6.01172 25.6797 6.67969 26.3477 7.49609 26.3477H12.0234C12.8398 26.3477 13.5078 25.6797 13.5078 24.8633C13.5078 24.0469 12.8398 23.3789 12.0234 23.3789Z" fill="#323132"></path><path d="M12.0234 29.0938H7.49609C6.67969 29.0938 6.01172 29.7617 6.01172 30.5781C6.01172 31.3945 6.67969 32.0625 7.49609 32.0625H12.0234C12.8398 32.0625 13.5078 31.3945 13.5078 30.5781C13.5078 29.7617 12.8398 29.0938 12.0234 29.0938Z" fill="#323132"></path><path d="M21.6719 29.0938H17.1445C16.3281 29.0938 15.6602 29.7617 15.6602 30.5781C15.6602 31.3945 16.3281 32.0625 17.1445 32.0625H21.6719C22.4883 32.0625 23.1562 31.3945 23.1562 30.5781C23.1562 29.7617 22.4883 29.0938 21.6719 29.0938Z" fill="#323132"></path><path d="M21.6719 5.9375H7.49609C6.67969 5.9375 6.01172 6.60547 6.01172 7.42188V13.2852C6.01172 14.1016 6.67969 14.7695 7.49609 14.7695H21.6719C22.4883 14.7695 23.1562 14.1016 23.1562 13.2852V7.42188C23.1562 6.60547 22.4883 5.9375 21.6719 5.9375ZM20.1875 11.8008H8.98047V8.90625H20.1875V11.8008Z" fill="#323132"></path><path d="M36.5156 26.125C37.332 26.125 38 25.457 38 24.6406V20.9297C38 20.1133 37.332 19.4453 36.5156 19.4453H29.0938V1.48438C29.0938 0.667969 28.4258 0 27.6094 0H1.48438C0.667969 0 0 0.667969 0 1.48438V32.0625C0 35.3355 2.66445 38 5.9375 38H32.0625C32.0773 38 32.0848 38 32.0996 38C33.673 37.9926 35.15 37.3766 36.2633 36.2633C37.384 35.1426 38 33.6508 38 32.0625C38 31.2461 37.332 30.5781 36.5156 30.5781C35.6992 30.5781 35.0312 31.2461 35.0312 32.0625C35.0312 32.8566 34.7195 33.5988 34.1629 34.1629C33.5988 34.7195 32.8566 35.0312 32.0625 35.0312C31.2461 35.0312 30.5039 34.6973 29.9621 34.1629C29.4277 33.6211 29.0938 32.8789 29.0938 32.0625V22.4141H35.0312V24.6406C35.0312 25.457 35.6992 26.125 36.5156 26.125ZM5.9375 35.0312C4.29727 35.0312 2.96875 33.6953 2.96875 32.0625V2.96875H26.125V32.0625C26.125 33.1461 26.4145 34.1555 26.9191 35.0312H5.9375Z" fill="#323132"></path><path d="M20.1875 8.90625H8.98047V11.8008H20.1875V8.90625Z" fill="#F6A62C"></path><path d="M21.6719 17.5898H17.1445C16.3281 17.5898 15.6602 18.2578 15.6602 19.0742C15.6602 19.8906 16.3281 20.5586 17.1445 20.5586H21.6719C22.4883 20.5586 23.1562 19.8906 23.1562 19.0742C23.1562 18.2578 22.4883 17.5898 21.6719 17.5898Z" fill="#323132"></path><path d="M21.6719 23.3789H17.1445C16.3281 23.3789 15.6602 24.0469 15.6602 24.8633C15.6602 25.6797 16.3281 26.3477 17.1445 26.3477H21.6719C22.4883 26.3477 23.1562 25.6797 23.1562 24.8633C23.1562 24.0469 22.4883 23.3789 21.6719 23.3789Z" fill="#323132"></path></svg>