<svg xmlns="http://www.w3.org/2000/svg" width="40" height="39.992" viewBox="0 0 10.583 10.581"><defs><clipPath id="a"><path fill="#fff" d="M0 0h40v40H0z"></path></clipPath></defs><g clip-path="url(#a)" transform="matrix(.26458 0 0 .26458 0 -.002)" style="fill:none"><path d="M32.438 21.64c-4.165 0-7.555 3.391-7.555 7.555a7.53 7.53 0 0 0 1.125 3.961l-4.172 4.172A1.566 1.566 0 0 0 22.938 40c.398 0 .796-.156 1.101-.46l4.125-4.126a7.526 7.526 0 0 0 4.273 1.328c4.165 0 7.555-3.383 7.555-7.547-.008-4.172-3.39-7.554-7.555-7.554zm0 11.977a4.436 4.436 0 0 1-4.43-4.43 4.436 4.436 0 0 1 4.43-4.43 4.436 4.436 0 0 1 4.43 4.43c-.009 2.446-1.993 4.43-4.43 4.43z" fill="#323132"></path><path d="M35.572 32.325a4.43 4.43 0 1 0-6.265-6.264 4.43 4.43 0 0 0 6.265 6.264z" fill="#f6a62c"></path><path d="M21.555 21.563h2.812c.86 0 1.563-.703 1.563-1.563s-.703-1.562-1.563-1.562h-2.812v-6.196a51.516 51.516 0 0 0 5.172-.39c.453 1.734.765 3.625.906 5.601.062.82.742 1.454 1.555 1.454.039 0 .078 0 .117-.008a1.564 1.564 0 0 0 1.445-1.672 34.746 34.746 0 0 0-.93-5.89c1.446-.298 2.79-.657 3.992-1.087a16.663 16.663 0 0 1 3.07 8.313c.071.812.75 1.43 1.556 1.43.046 0 .085 0 .132-.008.86-.07 1.5-.828 1.43-1.688a19.875 19.875 0 0 0-6.36-12.992A19.967 19.967 0 0 0 20.07.008h-.078a19.855 19.855 0 0 0-14.14 5.86A19.849 19.849 0 0 0 0 20c0 4.75 1.695 9.352 4.766 12.961a20.02 20.02 0 0 0 11.836 6.75 1.54 1.54 0 0 0 1.273-.344c.352-.296.555-.734.555-1.195v-.828c0-.5-.243-.977-.649-1.266-1.32-.953-2.531-2.703-3.469-4.992 1.32-.148 2.704-.25 4.118-.289v1.54c0 .858.703 1.562 1.562 1.562.86 0 1.563-.704 1.563-1.563zM31.563 7.696c-.836.242-1.735.453-2.68.64a20.541 20.541 0 0 0-1.399-3.008 12.88 12.88 0 0 0-.39-.648 17.102 17.102 0 0 1 4.468 3.016ZM21.555 3.485c1.14.546 2.25 1.703 3.218 3.398.344.594.657 1.242.946 1.938a47.033 47.033 0 0 1-4.164.296zm-8.563 1.171c-.32.5-.625 1.04-.906 1.618a21.217 21.217 0 0 0-.906 2.086 29.596 29.596 0 0 1-2.72-.649 16.634 16.634 0 0 1 4.532-3.055ZM6.22 10.274a31.16 31.16 0 0 0 4.023 1.086c-.555 2.203-.89 4.593-.992 7.085H3.195a16.795 16.795 0 0 1 3.024-8.171ZM3.195 21.563H9.25c.102 2.484.43 4.851.969 7.008a30.178 30.178 0 0 0-4.063 1.101 16.798 16.798 0 0 1-2.96-8.11Zm5.164 10.68c.86-.258 1.797-.477 2.782-.673.523 1.407 1.148 2.688 1.859 3.797a16.6 16.6 0 0 1-4.64-3.125Zm10.07-4.57a50.58 50.58 0 0 0-5.116.39c-.524-2.016-.844-4.211-.938-6.5h6.055zm0-9.235h-6.054c.102-2.328.43-4.555.953-6.578a52.48 52.48 0 0 0 5.102.382zm0-9.32a48.574 48.574 0 0 1-4.085-.29c.164-.398.344-.789.531-1.164 1.031-2.054 2.273-3.484 3.555-4.133Z" fill="#323132"></path></g></svg>