<svg xmlns:inkscape="http://www.inkscape.org/namespaces/inkscape" xmlns:sodipodi="http://sodipodi.sourceforge.net/DTD/sodipodi-0.dtd" xmlns="http://www.w3.org/2000/svg" xmlns:svg="http://www.w3.org/2000/svg" width="44" height="39.18755" viewBox="0 0 44 39.18755" fill="none" id="svg16" sodipodi:docname="intership-experience.svg" inkscape:version="1.1.1 (3bf5ae0d25, 2021-09-20)"><defs id="defs20"></defs><path d="m 22.8852,29.10705 c -0.4727,-2.286 -1.9078,-4.1852 -3.8242,-5.3196 0.6015,-0.8421 0.9625,-1.882 0.9625,-2.9906 0,-2.8445 -2.3117,-5.1562 -5.1563,-5.1562 -2.8445,0 -5.15623,2.3117 -5.15623,5.1562 0,1.1344 0.36953,2.1828 0.98833,3.0336 -1.88208,1.1344 -3.29145,3.0164 -3.76411,5.2766 -0.17187,0.8336 0.03438,1.6844 0.56719,2.3461 0.53281,0.6531 1.32344,1.0312 2.17422,1.0312 h 10.4672 c 0.8508,0 1.6414,-0.3781 2.1742,-1.0312 0.5328,-0.6617 0.7391,-1.5125 0.5672,-2.3461 z m -8.018,-10.0289 c 0.9453,0 1.7188,0.7734 1.7188,1.7187 0,0.9453 -0.7735,1.7188 -1.7188,1.7188 -0.9453,0 -1.7187,-0.7735 -1.7187,-1.7188 0,-0.9453 0.7734,-1.7187 1.7187,-1.7187 z m -4.3398,9.9687 c 0.6961,-1.7445 2.4062,-2.9476 4.3398,-2.9476 h 0.086 c 1.9336,0 3.6437,1.2031 4.3398,2.9476 z" fill="#323132" id="path2"></path><path d="m 19.293,29.04685 h -8.7657 c 0.6961,-1.7445 2.4063,-2.9476 4.3399,-2.9476 h 0.0859 c 1.9336,0 3.6438,1.2031 4.3399,2.9476 z" fill="#f6a62c" id="path4"></path><path d="m 14.8672,22.51565 c 0.9492,0 1.7187,-0.7695 1.7187,-1.7188 0,-0.9492 -0.7695,-1.7187 -1.7187,-1.7187 -0.9493,0 -1.7188,0.7695 -1.7188,1.7187 0,0.9493 0.7695,1.7188 1.7188,1.7188 z" fill="#f6a62c" id="path6"></path><path d="m 42.2812,30.59375 c -0.9453,0 -1.7187,0.7734 -1.7187,1.7188 0,1.8992 -1.5383,3.4374 -3.4375,3.4374 H 6.875 c -1.89922,0 -3.4375,-1.5382 -3.4375,-3.4374 v -18.5626 c 0,-1.8992 1.53828,-3.4374 3.4375,-3.4374 h 4.8125 c 0.9453,0 1.7187,-0.7735 1.7187,-1.7188 0,-0.9453 -0.7734,-1.71875 -1.7187,-1.71875 H 6.875 C 3.08516,6.875 0,9.96015 0,13.74995 v 18.5626 c 0,3.7898 3.08516,6.875 6.875,6.875 h 30.25 c 3.7898,0 6.875,-3.0852 6.875,-6.875 0,-0.9454 -0.7734,-1.7188 -1.7188,-1.7188 z" fill="#323132" id="path8"></path><path d="M 37.125,6.875 H 27.1562 V 1.71875 C 27.1562,0.77344 26.3828,0 25.4375,0 h -6.875 c -0.9453,0 -1.7187,0.77344 -1.7187,1.71875 v 6.875 c 0,2.8445 2.3117,5.1562 5.1562,5.1562 2.243,0 4.1508,-1.4351 4.8641,-3.4374 H 37.125 c 1.8992,0 3.4375,1.5382 3.4375,3.4374 v 9.9688 c 0,0.9453 0.7734,1.7188 1.7187,1.7188 0.9454,0 1.7188,-0.7735 1.7188,-1.7188 v -9.9688 C 44,9.96015 40.9148,6.875 37.125,6.875 Z M 23.7188,8.59375 c 0,0.9453 -0.7735,1.7188 -1.7188,1.7188 -0.9453,0 -1.7188,-0.7735 -1.7188,-1.7188 V 3.4375 h 3.4376 z" fill="#323132" id="path10"></path><path d="m 27.6719,28.53985 h 4.2969 c 0.9453,0 1.7187,-0.7734 1.7187,-1.7188 0,-0.9453 -0.7734,-1.7187 -1.7187,-1.7187 h -4.2969 c -0.9453,0 -1.7188,0.7734 -1.7188,1.7187 0,0.9454 0.7735,1.7188 1.7188,1.7188 z" fill="#323132" id="path12"></path><path d="m 27.6719,22.52425 h 7.7343 c 0.9454,0 1.7188,-0.7735 1.7188,-1.7188 0,-0.9453 -0.7734,-1.7187 -1.7188,-1.7187 h -7.7343 c -0.9453,0 -1.7188,0.7734 -1.7188,1.7187 0,0.9453 0.7735,1.7188 1.7188,1.7188 z" fill="#323132" id="path14"></path></svg>