<svg xmlns="http://www.w3.org/2000/svg" width="40" height="40" fill="none"><g clip-path="url(#a)"><path d="M39.898 34.273c-.18-.843-1-1.39-1.851-1.21-.844.18-1.39 1-1.211 1.851.102.484-.016.984-.328 1.367-.18.219-.586.594-1.25.594h-7.055c-.86 0-1.562.703-1.562 1.562 0 .86.703 1.563 1.562 1.563h7.055c1.43 0 2.773-.64 3.672-1.75a4.712 4.712 0 0 0 .968-3.977zM36.89 27.133a20.351 20.351 0 0 0-10.531-8c2.586-1.945 4.265-5.031 4.265-8.508C30.624 4.765 25.86 0 20 0 14.14 0 9.374 4.766 9.374 10.625c0 3.477 1.68 6.57 4.266 8.508a20.13 20.13 0 0 0-6.547 3.601 20.395 20.395 0 0 0-6.992 11.54 4.712 4.712 0 0 0 .969 3.976A4.726 4.726 0 0 0 4.742 40h6.82c.86 0 1.563-.703 1.563-1.563 0-.859-.704-1.562-1.563-1.562h-6.82c-.664 0-1.07-.375-1.25-.594a1.625 1.625 0 0 1-.328-1.367c1.53-7.352 7.734-12.828 15.093-13.586l-2.984 13.57a1.552 1.552 0 0 0 .422 1.438l3.125 3.125a1.55 1.55 0 0 0 2.203 0l3.125-3.125c.375-.375.539-.922.422-1.438l-2.985-13.586a17.18 17.18 0 0 1 12.711 7.563 1.568 1.568 0 0 0 2.172.43 1.568 1.568 0 0 0 .422-2.172zm-16.969 9.015-1.414-1.414 1.414-6.437 1.414 6.437zm.453-18.03h-.742c-3.969-.188-7.133-3.477-7.133-7.493 0-4.133 3.368-7.5 7.5-7.5 4.133 0 7.5 3.367 7.5 7.5 0 4.008-3.164 7.297-7.125 7.492z" fill="#323132"></path><path d="m21.336 34.734-1.414 1.414-1.414-1.414 1.414-6.437z" fill="#f3a212"></path></g><defs><clipPath id="a"><path fill="#fff" d="M0 0h40v40H0z"></path></clipPath></defs></svg>